<svg width="120" height="24" viewBox="0 0 120 24" fill="none" xmlns="http://www.w3.org/2000/svg">
<g clip-path="url(#clip0)">
<path d="M46.1516 2.98035C50.1886 2.98035 52.2268 4.62757 52.2268 7.42146C52.2268 9.29605 51.296 10.8173 49.4084 11.4716C51.5839 12.0621 52.7551 13.5212 52.7551 15.6232C52.7551 18.7557 50.1641 21.0196 46.3528 21.0196H37.145V2.98035H46.1516ZM40.3397 10.3397H46.0371C47.9231 10.3397 49.0305 9.53487 49.0305 8.08885C49.0305 6.44163 47.609 5.96235 46.2513 5.96235H40.3397V10.3397ZM40.3397 18.0376H46.3397C48.2895 18.0376 49.5098 17.0185 49.5098 15.422C49.5098 13.7748 48.2012 12.9438 46.3151 12.9438H40.3397V18.0376Z" fill="#15162D"/>
<path d="M75.6412 12C75.6412 17.8364 71.717 21.4335 65.8299 21.4335C59.9427 21.4335 56.0054 17.8364 56.0054 12C56.0054 6.16358 59.9427 2.56653 65.8299 2.56653C71.717 2.56653 75.6412 6.16358 75.6412 12ZM59.2508 12C59.2508 16.1385 61.9171 18.4531 65.8299 18.4531C69.7295 18.4531 72.3958 16.1385 72.3958 12C72.3958 7.86151 69.7295 5.5469 65.8299 5.5469C61.9171 5.5469 59.2508 7.86151 59.2508 12Z" fill="#15162D"/>
<path d="M96.7688 2.98035V21.0196H93.2715L83.0823 7.67337V21.0196H79.8876V2.98035H83.3849L93.5741 16.4149V2.98035H96.7688Z" fill="#15162D"/>
<path d="M110.164 2.98035C115.901 2.98035 119.661 6.3762 119.661 11.9231C119.661 17.5207 115.826 21.018 110.014 21.018H101.975V2.98035H110.164ZM105.17 18H109.686C114.694 18 116.416 15.1701 116.416 11.9754C116.416 8.78078 114.68 5.99998 109.686 5.99998H105.17V18Z" fill="#15162D"/>
<path d="M19.9138 22.096C22.3904 20.2901 24 17.367 24 14.0676V13.819L17.8184 20.0005L19.9138 22.096ZM1.90567 19.9138C3.71156 22.3904 6.63468 24 9.93402 24H10.1827L4.00109 17.8184L1.90567 19.9138ZM23.3702 6.4482L13.819 15.9995L16.0011 18.1816L24.0016 10.181V9.93239C24 8.7072 23.7759 7.53272 23.3702 6.4482ZM5.81843 15.9995L13.819 24H14.0676C15.2944 24 16.4673 23.7759 17.5518 23.3702L8.00054 13.819L5.81843 15.9995ZM22.096 4.08615C20.2884 1.6096 17.367 0 14.066 0H13.8173L19.9989 6.18157L22.096 4.08615ZM18.1816 8.00055L10.1827 0H9.93402C8.7072 0 7.53271 0.2241 6.4482 0.629771L15.9995 10.181L18.1816 8.00055ZM4.08615 1.90567C1.6096 3.71156 0 6.63304 0 9.93402V10.1827L6.18157 4.00109L4.08615 1.90567ZM8.00054 5.81843L0 13.819V14.0676C0 15.2944 0.2241 16.4689 0.629771 17.5534L10.181 8.00218L8.00054 5.81843Z" fill="#6673FF"/>
</g>
<defs>
<clipPath id="clip0">
<rect width="119.661" height="24" fill="white"/>
</clipPath>
</defs>
</svg>
