<svg width="360" height="360" viewBox="0 0 360 360" fill="none" xmlns="http://www.w3.org/2000/svg">
<circle cx="179" cy="180" r="120" fill="#FFECDF"/>
<circle cx="25" cy="272" r="25" fill="#FFC59E"/>
<path d="M21.1566 268.802C19.3903 270.924 19.6792 274.077 21.8018 275.843C23.9244 277.61 27.0771 277.321 28.8434 275.198L21.1566 268.802ZM338 87.9484C337.971 85.1871 335.71 82.9718 332.948 83.0003L287.951 83.4647C285.19 83.4932 282.974 85.7547 283.003 88.516C283.031 91.2773 285.293 93.4927 288.054 93.4642L328.052 93.0513L328.465 133.049C328.493 135.81 330.755 138.026 333.516 137.997C336.277 137.969 338.493 135.707 338.464 132.946L338 87.9484ZM119.315 158.659L123.158 161.857L119.315 158.659ZM132.452 156.671L135.177 152.479L132.452 156.671ZM28.8434 275.198L123.158 161.857L115.471 155.461L21.1566 268.802L28.8434 275.198ZM129.727 160.863L204.288 209.336L209.738 200.952L135.177 152.479L129.727 160.863ZM223.179 207.257L336.572 91.4989L329.428 84.5011L216.035 200.259L223.179 207.257ZM204.288 209.336C210.277 213.23 218.18 212.36 223.179 207.257L216.035 200.259C214.369 201.96 211.734 202.25 209.738 200.952L204.288 209.336ZM123.158 161.857C124.779 159.909 127.602 159.482 129.727 160.863L135.177 152.479C128.802 148.335 120.335 149.616 115.471 155.461L123.158 161.857Z" fill="#FF9E5E"/>
</svg>
