<svg width="360" height="360" viewBox="0 0 360 360" fill="none" xmlns="http://www.w3.org/2000/svg">
<rect x="50" y="59" width="54" height="54" rx="5" fill="#FFB17E"/>
<rect x="50" y="153" width="54" height="54" rx="5" fill="#FFD8BF"/>
<rect x="50" y="247" width="54" height="54" rx="5" fill="#FFC59E"/>
<path d="M312.828 177.172C314.391 178.734 314.391 181.266 312.828 182.828L287.373 208.284C285.81 209.846 283.278 209.846 281.716 208.284C280.154 206.722 280.154 204.19 281.716 202.627L304.343 180L281.716 157.373C280.154 155.81 280.154 153.278 281.716 151.716C283.278 150.154 285.81 150.154 287.373 151.716L312.828 177.172ZM190 184C187.791 184 186 182.209 186 180C186 177.791 187.791 176 190 176V184ZM310 184H190V176H310V184Z" fill="#FF9E5E"/>
<path d="M312.828 83.1716C314.391 84.7337 314.391 87.2663 312.828 88.8284L287.373 114.284C285.81 115.846 283.278 115.846 281.716 114.284C280.154 112.722 280.154 110.19 281.716 108.627L304.343 86L281.716 63.3726C280.154 61.8105 280.154 59.2778 281.716 57.7157C283.278 56.1536 285.81 56.1536 287.373 57.7157L312.828 83.1716ZM190 90C187.791 90 186 88.2091 186 86C186 83.7909 187.791 82 190 82V90ZM310 90H190V82H310V90Z" fill="#FF9E5E"/>
<path d="M312.828 271.172C314.391 272.734 314.391 275.266 312.828 276.828L287.373 302.284C285.81 303.846 283.278 303.846 281.716 302.284C280.154 300.722 280.154 298.19 281.716 296.627L304.343 274L281.716 251.373C280.154 249.81 280.154 247.278 281.716 245.716C283.278 244.154 285.81 244.154 287.373 245.716L312.828 271.172ZM190 278C187.791 278 186 276.209 186 274C186 271.791 187.791 270 190 270V278ZM310 278H190V270H310V278Z" fill="#FF9E5E"/>
</svg>
