<svg width="360" height="360" viewBox="0 0 360 360" fill="none" xmlns="http://www.w3.org/2000/svg">
<rect x="50" y="59" width="200" height="54" rx="5" fill="#FFD8BF"/>
<rect x="110" y="153" width="200" height="54" rx="5" fill="#FFECDF"/>
<rect x="50" y="247" width="200" height="54" rx="5" fill="#FFC59E"/>
<path d="M187.172 83.1716C185.609 84.7337 185.609 87.2663 187.172 88.8284L212.627 114.284C214.19 115.846 216.722 115.846 218.284 114.284C219.846 112.722 219.846 110.19 218.284 108.627L195.657 86L218.284 63.3726C219.846 61.8105 219.846 59.2778 218.284 57.7157C216.722 56.1536 214.19 56.1536 212.627 57.7157L187.172 83.1716ZM310 90C312.209 90 314 88.2091 314 86C314 83.7909 312.209 82 310 82V90ZM190 90H310V82H190V90Z" fill="#FF9E5E"/>
<path d="M187.172 271.172C185.609 272.734 185.609 275.266 187.172 276.828L212.627 302.284C214.19 303.846 216.722 303.846 218.284 302.284C219.846 300.722 219.846 298.19 218.284 296.627L195.657 274L218.284 251.373C219.846 249.81 219.846 247.278 218.284 245.716C216.722 244.154 214.19 244.154 212.627 245.716L187.172 271.172ZM310 278C312.209 278 314 276.209 314 274C314 271.791 312.209 270 310 270V278ZM190 278H310V270H190V278Z" fill="#FF9E5E"/>
<path d="M172.828 177.172C174.391 178.734 174.391 181.266 172.828 182.828L147.373 208.284C145.81 209.846 143.278 209.846 141.716 208.284C140.154 206.722 140.154 204.19 141.716 202.627L164.343 180L141.716 157.373C140.154 155.81 140.154 153.278 141.716 151.716C143.278 150.154 145.81 150.154 147.373 151.716L172.828 177.172ZM50 184C47.7909 184 46 182.209 46 180C46 177.791 47.7909 176 50 176V184ZM170 184H50V176H170V184Z" fill="#FF9E5E"/>
</svg>
